# xmcd
# Track frame offsets:
# 150
# 22802
# 41770
# 67307
# 85652
# 105272
# 131770
# 172430
# 212145
# 237790
# 261562
# 289935
#
# Disc length: 4355 seconds
# Revision: 0
# Processed by: cddbd v1.5.1PL0 Copyright (c) Steve Scherf et al.
# Submitted via: VisiTrax 2.9.10.220 - For more info visit www.synapsa.com
#
DISCID=b511010c
DTITLE=Comet Records All-Stars - Live at the Torrita Blues Festival 2002 - CD
DTITLE=1
DYEAR=2002
DGENRE=Blues
TTITLE0=Mama's Pit - A Good Fool Is Hard To Find
TTITLE1=Mama's Pit - Living In The Ghetto
TTITLE2=Mama's Pit - You're Talkin' Up Another Man's Place
TTITLE3=Mama's Pit - The Way You Treated Me
TTITLE4=Mama's Pit - Keep Your Head Up
TTITLE5=Mama's Pit - The Sky Is Crying
TTITLE6=Mama's Pit - Take Me To The River
TTITLE7=Mike Oneso's Blindside Blues Band - Crying Shame
TTITLE8=Mike Oneso's Blindside Blues Band - To The Station
TTITLE9=Mike Oneso's Blindside Blues Band - The Light
TTITLE10=Mike Oneso's Blindside Blues Band - Running
TTITLE11=Mike Oneso's Blindside Blues Band - Natural Thang
EXTD=2002 - Columbia No1
EXTT0=
EXTT1=
EXTT2=
EXTT3=
EXTT4=
EXTT5=
EXTT6=
EXTT7=
EXTT8=
EXTT9=
EXTT10=
EXTT11=
PLAYORDER=
